# xmcd
#
# Track frame offsets: 
#        150
#        32870
#        45737
#        87655
#        104425
#        134467
#        173025
#
# Disc length: 2720 seconds
#
# Revision: 5
# Processed by: cddbd v1.5.2PL0 Copyright (c) Steve Scherf et al.
# Submitted via: ExactAudioCopyFreeDBPlugin 1.0
#
DISCID=5e0a9e07
DTITLE=John Mayall - Jazz Blues Fusion
DYEAR=1972
DGENRE=Blues
TTITLE0=Country Road
TTITLE1=Mess Around
TTITLE2=Good Time Boogie
TTITLE3=Change Your Ways
TTITLE4=Dry Throat
TTITLE5=Exercise In C Minor For Harmonica, Bass and Shufflers
TTITLE6=Got To Be This Way
EXTD=YEAR: 1972
EXTT0=
EXTT1=
EXTT2=
EXTT3=
EXTT4=
EXTT5=
EXTT6=
PLAYORDER=
